<svg xmlns="http://www.w3.org/2000/svg" width="120.886" height="24.5" viewBox="0 0 120.886 24.5">
  <g id="Group_1" data-name="Group 1" transform="translate(-407.816 -951.386)">
    <g id="Group_20" data-name="Group 20" transform="translate(407.816 951.386)">
      <path id="Path_91" data-name="Path 91" d="M413.475,964.585h-1.146v5.205h-4.513V953.864h7.02a5.114,5.114,0,0,1,5.348,5.3A5,5,0,0,1,417.8,963.8l2.459,5.993h-4.99Zm.645-6.876h-1.791v3.032h1.791a1.442,1.442,0,0,0,1.48-1.528A1.422,1.422,0,0,0,414.12,957.708Z" transform="translate(-407.816 -953.601)"/>
      <path id="Path_92" data-name="Path 92" d="M549.09,967.641h-4.56l-.477,2.149H539.4l4.68-15.926h5.468l4.68,15.926h-4.656Zm-3.7-3.844h2.841l-1.409-5.993Z" transform="translate(-525.452 -953.601)"/>
      <path id="Path_93" data-name="Path 93" d="M698.688,953.864H703.2V969.79h-4.513Z" transform="translate(-667.864 -953.601)"/>
      <path id="Path_94" data-name="Path 94" d="M778.628,961.6v8.19h-4.465V953.864h4.584l3.987,7.712v-7.712h4.441V969.79H782.9Z" transform="translate(-735.341 -953.601)"/>
      <path id="Path_95" data-name="Path 95" d="M921.048,963.415l-4.943-9.551h4.943l2.268,5.444,2.244-5.444h4.919l-4.895,9.551v6.375h-4.537Z" transform="translate(-862.241 -953.601)"/>
      <path id="Path_96" data-name="Path 96" d="M1074.724,953.864h4.751c4.274,0,6.709,3.343,6.709,7.975s-2.412,7.951-6.709,7.951h-4.751Zm4.751,13.586c2.6,0,3.987-2.34,3.987-5.611,0-3.343-1.337-5.659-3.987-5.659h-2.1v11.27Z" transform="translate(-1004.05 -953.601)"/>
      <path id="Path_97" data-name="Path 97" d="M1207.717,966.638h-5.468l-.86,3.152h-2.746l4.751-15.926h3.176l4.751,15.926h-2.746Zm-4.919-2.34h4.393l-2.2-8.07Z" transform="translate(-1114.838 -953.601)"/>
      <path id="Path_98" data-name="Path 98" d="M1325.03,963.152l-4.943-9.288h2.937l3.319,6.8,3.319-6.8h2.913l-4.918,9.288v6.638h-2.626Z" transform="translate(-1223.412 -953.601)"/>
      <path id="Path_99" data-name="Path 99" d="M1452.555,963.778a5.089,5.089,0,0,0,3.8,1.719c1.648,0,2.483-.979,2.483-2.1,0-1.432-1.337-2.053-2.865-2.746-1.982-.86-4.274-1.839-4.274-4.823,0-2.483,1.934-4.441,4.942-4.441a6.472,6.472,0,0,1,4.584,1.719l-1.29,2.006a4.67,4.67,0,0,0-3.366-1.361,1.951,1.951,0,0,0-2.173,1.934c0,1.218,1.265,1.791,2.746,2.459,2.03.907,4.393,1.958,4.393,5.038,0,2.6-1.767,4.68-5.181,4.68a6.774,6.774,0,0,1-5.133-2.03Z" transform="translate(-1340.647 -951.386)"/>
    </g>
    <g id="Group_21" data-name="Group 21" transform="translate(407.821 970.705)">
      <path id="Path_100" data-name="Path 100" d="M407.866,1134.252h1.2a1.191,1.191,0,0,1,0,2.374h-.73v1.584h-.475Zm1.157.415h-.682v1.543h.682c.409,0,.653-.32.653-.771S409.433,1134.667,409.023,1134.667Z" transform="translate(-407.866 -1134.193)"/>
      <path id="Path_101" data-name="Path 101" d="M462.783,1147.025a1.044,1.044,0,0,1-.831.469c-.487,0-.718-.243-.718-.765v-2.172h.421v2.047c0,.38.178.51.457.51a.808.808,0,0,0,.671-.445v-2.113h.427v2.866h-.427Z" transform="translate(-455.578 -1143.405)"/>
      <path id="Path_102" data-name="Path 102" d="M511.624,1146.186a.988.988,0,0,0,.748.362c.332,0,.552-.178.552-.451,0-.309-.285-.433-.6-.564-.392-.154-.831-.326-.831-.878a.813.813,0,0,1,.914-.771,1.148,1.148,0,0,1,.872.368l-.2.291a.824.824,0,0,0-.665-.315c-.315,0-.51.172-.51.4,0,.273.267.392.57.516.4.16.86.338.86.926a.847.847,0,0,1-.956.819,1.217,1.217,0,0,1-.967-.4Z" transform="translate(-500.437 -1142.804)"/>
      <path id="Path_103" data-name="Path 103" d="M563.141,1136.163c0-.38-.178-.51-.463-.51a.837.837,0,0,0-.671.457v2.1h-.421v-3.958h.421v1.5a1.075,1.075,0,0,1,.837-.481c.487,0,.718.243.718.766v2.172h-.421Z" transform="translate(-545.296 -1134.193)"/>
      <path id="Path_104" data-name="Path 104" d="M613.161,1134.822a.3.3,0,0,1,.291-.291.291.291,0,0,1,0,.582A.3.3,0,0,1,613.161,1134.822Zm.083.772h.421v2.866h-.421Z" transform="translate(-591.405 -1134.442)"/>
      <path id="Path_105" data-name="Path 105" d="M653.182,1144.78c0-.38-.172-.516-.457-.516a.838.838,0,0,0-.671.457v2.1h-.421v-2.866h.421v.41a1.064,1.064,0,0,1,.831-.481c.487,0,.724.261.724.777v2.16h-.427Z" transform="translate(-625.801 -1142.804)"/>
      <path id="Path_106" data-name="Path 106" d="M702.963,1147.29a.934.934,0,0,0,.748.332.684.684,0,0,0,.718-.777v-.481a.908.908,0,0,1-.754.492c-.641,0-1.027-.582-1.027-1.484s.38-1.489,1.027-1.489a.871.871,0,0,1,.754.487v-.416h.427v2.86a1.036,1.036,0,0,1-1.133,1.169,1.234,1.234,0,0,1-.955-.362Zm1.466-2.558a.767.767,0,0,0-.647-.469c-.469,0-.688.493-.688,1.11s.22,1.1.688,1.1a.773.773,0,0,0,.647-.475Z" transform="translate(-671.409 -1142.804)"/>
      <path id="Path_107" data-name="Path 107" d="M793.075,1140.238v-1.917h-.38v-.374h.38v-.783h.427v.783h.487v.374H793.5v1.839c0,.22.065.344.231.344a.321.321,0,0,0,.249-.113l.131.32a.616.616,0,0,1-.463.172C793.259,1140.885,793.075,1140.665,793.075,1140.238Z" transform="translate(-751.914 -1136.796)"/>
      <path id="Path_108" data-name="Path 108" d="M838.1,1136.163c0-.38-.178-.51-.463-.51a.837.837,0,0,0-.671.457v2.1h-.421v-3.958h.421v1.5a1.075,1.075,0,0,1,.837-.481c.487,0,.718.243.718.766v2.172H838.1Z" transform="translate(-791.115 -1134.193)"/>
      <path id="Path_109" data-name="Path 109" d="M888.722,1143.884c.754,0,1.133.677,1.133,1.513v.13H888c.018.576.314,1.009.825,1.009a.884.884,0,0,0,.682-.35l.225.249a1.193,1.193,0,0,1-.944.457c-.766,0-1.228-.629-1.228-1.507C887.559,1144.555,888,1143.884,888.722,1143.884Zm-.724,1.329h1.436c-.006-.439-.2-.973-.718-.973C888.212,1144.24,888.01,1144.792,888,1145.213Z" transform="translate(-836.725 -1142.804)"/>
      <path id="Path_110" data-name="Path 110" d="M979.632,1143.884a.98.98,0,0,1,.819.38l-.231.291a.645.645,0,0,0-.552-.291c-.51,0-.777.51-.777,1.122s.267,1.127.777,1.127a.659.659,0,0,0,.552-.291l.231.291a.965.965,0,0,1-.819.38c-.736,0-1.187-.659-1.187-1.507S978.9,1143.884,979.632,1143.884Z" transform="translate(-917.98 -1142.804)"/>
      <path id="Path_111" data-name="Path 111" d="M1027.5,1145.385c0-.807.4-1.5,1.163-1.5s1.169.694,1.169,1.5-.4,1.507-1.169,1.507S1027.5,1146.193,1027.5,1145.385Zm1.887,0c0-.576-.22-1.122-.724-1.122s-.718.546-.718,1.122.226,1.127.718,1.127S1029.388,1145.967,1029.388,1145.385Z" transform="translate(-961.837 -1142.804)"/>
      <path id="Path_112" data-name="Path 112" d="M1084.773,1144.745c0-.309-.125-.481-.4-.481a.786.786,0,0,0-.623.457v2.1h-.427v-2.077c0-.309-.125-.481-.4-.481a.8.8,0,0,0-.623.457v2.1h-.421v-2.866h.421v.41a.991.991,0,0,1,.783-.481.6.6,0,0,1,.647.51.986.986,0,0,1,.807-.51c.421,0,.665.231.665.748v2.19h-.427Z" transform="translate(-1010.451 -1142.804)"/>
      <path id="Path_113" data-name="Path 113" d="M1144.7,1135.216h-.38v-.374h.38v-.35a.7.7,0,0,1,.7-.8.8.8,0,0,1,.368.083l-.1.332a.41.41,0,0,0-.19-.047c-.226,0-.35.154-.35.433v.35h.486v.374h-.486v2.492h-.427Z" transform="translate(-1066.273 -1133.691)"/>
      <path id="Path_114" data-name="Path 114" d="M1186.147,1145.385c0-.807.4-1.5,1.163-1.5s1.169.694,1.169,1.5-.4,1.507-1.169,1.507S1186.147,1146.193,1186.147,1145.385Zm1.887,0c0-.576-.219-1.122-.724-1.122s-.718.546-.718,1.122.225,1.127.718,1.127S1188.034,1145.967,1188.034,1145.385Z" transform="translate(-1103.671 -1142.804)"/>
      <path id="Path_115" data-name="Path 115" d="M1240.523,1144.055h.421v.457a.962.962,0,0,1,.813-.516v.439a.579.579,0,0,0-.142-.018.86.86,0,0,0-.671.469v2.036h-.421Z" transform="translate(-1152.285 -1142.904)"/>
      <path id="Path_116" data-name="Path 116" d="M1280.718,1140.238v-1.917h-.38v-.374h.38v-.783h.427v.783h.487v.374h-.487v1.839c0,.22.065.344.232.344a.32.32,0,0,0,.249-.113l.131.32a.616.616,0,0,1-.463.172C1280.9,1140.885,1280.718,1140.665,1280.718,1140.238Z" transform="translate(-1187.88 -1136.796)"/>
      <path id="Path_117" data-name="Path 117" d="M1361.258,1147.09l1.24-2.16h-1.24v-.374h1.762v.326l-1.24,2.166h1.264v.374h-1.786Z" transform="translate(-1260.225 -1143.405)"/>
      <path id="Path_118" data-name="Path 118" d="M1409.192,1145.385c0-.807.4-1.5,1.163-1.5s1.169.694,1.169,1.5-.4,1.507-1.169,1.507S1409.192,1146.193,1409.192,1145.385Zm1.887,0c0-.576-.22-1.122-.724-1.122s-.718.546-.718,1.122.226,1.127.718,1.127S1411.079,1145.967,1411.079,1145.385Z" transform="translate(-1303.079 -1142.804)"/>
      <path id="Path_119" data-name="Path 119" d="M1465.118,1144.78c0-.38-.172-.516-.457-.516a.837.837,0,0,0-.671.457v2.1h-.421v-2.866h.421v.41a1.064,1.064,0,0,1,.831-.481c.487,0,.724.261.724.777v2.16h-.427Z" transform="translate(-1351.694 -1142.804)"/>
      <path id="Path_120" data-name="Path 120" d="M1515.747,1143.884c.753,0,1.133.677,1.133,1.513v.13h-1.857c.018.576.314,1.009.825,1.009a.883.883,0,0,0,.682-.35l.226.249a1.193,1.193,0,0,1-.943.457c-.766,0-1.229-.629-1.229-1.507C1514.584,1144.555,1515.023,1143.884,1515.747,1143.884Zm-.724,1.329h1.436c-.006-.439-.2-.973-.718-.973C1515.237,1144.24,1515.035,1144.792,1515.023,1145.213Z" transform="translate(-1397.303 -1142.804)"/>
    </g>
  </g>
</svg>
